<?xml version="1.0" encoding="utf-8"?>
<!-- Generator: Adobe Illustrator 25.3.0, SVG Export Plug-In . SVG Version: 6.00 Build 0)  -->
<svg version="1.1" xmlns="http://www.w3.org/2000/svg" xmlns:xlink="http://www.w3.org/1999/xlink" x="0px" y="0px"
	 viewBox="0 0 178 31" style="enable-background:new 0 0 178 31;" xml:space="preserve">
<style type="text/css">
	.st0{fill:#0096AE;}
	.st1{fill:#E13F6E;}
	.st2{fill:#FFFFFF;}
</style>
<g id="Layer_2_xA0_Image_1_">
</g>
<g id="Group_1_1_">
	<g id="Rounded_Rectangle_1">
		<g>
			<path class="st0" d="M8.46,0c-1,0-2.04,0.94-2.31,2.09L0.07,27.72c-0.27,1.15,0.32,2.09,1.32,2.09h86.76L95.22,0H8.46z"/>
		</g>
	</g>
	<g id="Rounded_Rectangle_1_copy_2">
		<g>
			<path class="st1" d="M176.21,0H94.58l-6.66,29.81h81.63c0.94,0,1.92-0.94,2.18-2.09l5.72-25.63C177.71,0.94,177.15,0,176.21,0z"
				/>
		</g>
	</g>
	<g id="digital">
		<g>
			<path class="st2" d="M22.62,19.34h-4.6l1.3-5.48h-2.88c-2.05-0.02-3.4,1.11-4.05,3.39c-0.17,0.88-0.05,1.67,0.38,2.36
				s1.22,1.06,2.38,1.09h7.17l-1,3.84h-8.15c-1.89-0.03-3.27-0.52-4.13-1.46C8.16,22.13,7.69,21,7.63,19.67
				c0.09-2.83,1.01-5.16,2.78-6.98c1.77-1.82,3.95-2.79,6.55-2.91h3.41l1.17-4.42h4.6L22.62,19.34z"/>
			<path class="st2" d="M26.31,9.79h4.75l-3.43,14.45c-0.02,0.1-0.05,0.2-0.09,0.3h-4.83c0.07-0.1,0.12-0.2,0.16-0.3L26.31,9.79z
				 M27.31,5.35h4.75l-0.71,3.17H26.6L27.31,5.35z"/>
			<path class="st2" d="M35.38,25.9h2.46c0.27,0,0.54-0.09,0.81-0.28s0.46-0.4,0.54-0.65l0.09-0.42h-0.11
				c0.01-0.01,0.02-0.02,0.03-0.04h-3.31c-2.53-0.11-4.17-1.01-4.92-2.72c-0.75-1.71-0.45-3.98,0.89-6.82
				c1.9-3.46,4.92-5.13,9.04-5.03h6.52l-0.96,3.85h-7.08c-1.18,0.02-2.13,0.34-2.86,0.97c-0.73,0.62-1.23,1.37-1.49,2.24
				c-0.49,2.29,0.3,3.42,2.37,3.39h2.9l1.3-5.24h4.61l-1.7,6.93l-0.74,2.88c-0.32,1.32-1.09,2.47-2.3,3.46
				c-1.21,0.99-2.46,1.49-3.75,1.49h-3.21L35.38,25.9z"/>
			<path class="st2" d="M49.15,9.79h4.75l-3.43,14.45c-0.02,0.1-0.05,0.2-0.09,0.3h-4.83c0.07-0.1,0.12-0.2,0.16-0.3L49.15,9.79z
				 M50.15,5.35h4.75l-0.71,3.17h-4.75L50.15,5.35z"/>
			<path class="st2" d="M56.74,5.35h4.7c0,0.01,0,0.02-0.01,0.03c0,0.01-0.01,0.03-0.02,0.05c-0.01,0.02-0.02,0.05-0.03,0.09
				c-0.01,0.04-0.02,0.09-0.04,0.14c-0.01,0.06-0.03,0.13-0.06,0.21s-0.05,0.17-0.07,0.28s-0.05,0.22-0.09,0.35
				c-0.03,0.13-0.07,0.28-0.11,0.44c-0.04,0.17-0.09,0.35-0.14,0.55c-0.05,0.2-0.11,0.42-0.16,0.66c-0.06,0.24-0.12,0.5-0.19,0.78
				c-0.07,0.28-0.15,0.58-0.24,0.91h3.37l-0.93,4.25H59.3c0,0.01,0,0.02-0.01,0.03c0,0.01-0.01,0.03-0.01,0.06s-0.01,0.06-0.02,0.11
				c-0.01,0.04-0.02,0.1-0.04,0.16c-0.01,0.07-0.03,0.15-0.05,0.24s-0.05,0.2-0.08,0.32s-0.07,0.26-0.11,0.42s-0.08,0.34-0.13,0.54
				c-0.05,0.2-0.1,0.42-0.16,0.67s-0.12,0.51-0.19,0.81c-0.07,0.3-0.15,0.62-0.24,0.96c-0.09,0.34-0.18,0.72-0.29,1.13
				c-0.03,0.25,0.03,0.47,0.17,0.66c0.14,0.19,0.35,0.29,0.61,0.29h2.44l-0.94,4.05h-3.21c-1.28,0-2.3-0.5-3.05-1.5
				c-0.75-1-0.98-2.17-0.71-3.49L56.74,5.35z"/>
			<path class="st2" d="M68.77,24.48c-2.4-0.26-3.98-1.3-4.75-3.13c-0.77-1.83-0.57-4.09,0.6-6.79c2-3.34,5.1-4.9,9.31-4.67h6.67
				l-0.21,0.76h0.01l-1.17,4.64l-2.34,9.25h-4.67L68.77,24.48z M74.57,15.29h-0.01l0.39-1.55H72.7c-1.2,0.02-2.17,0.34-2.91,0.97
				c-0.74,0.63-1.25,1.37-1.51,2.24c-0.5,2.3,0.29,3.44,2.38,3.41h2.6L74.57,15.29z"/>
			<path class="st2" d="M83.66,5.35h4.77l-3.55,14.19c-0.03,0.25,0.03,0.47,0.18,0.66c0.15,0.19,0.35,0.29,0.62,0.29h2.6l-1.01,4.05
				H84c-1.31,0-2.36-0.5-3.13-1.5c-0.78-1-1.03-2.17-0.76-3.49L83.66,5.35z"/>
		</g>
	</g>
	<g id="Press">
		<g>
			<path class="st2" d="M101.39,5.35h9.42c1.34,0,2.43,0.5,3.26,1.49c0.83,0.99,1.11,2.14,0.83,3.44c-0.32,1.43-0.7,3.06-1.11,4.9
				c-0.23,0.93-0.72,1.69-1.48,2.28c-0.76,0.6-1.63,0.89-2.62,0.89c-0.01,0-0.03,0-0.05,0s-0.06,0-0.11,0s-0.12,0-0.21,0
				c-0.09,0-0.21,0-0.35,0s-0.32,0-0.53,0c-0.21,0-0.46,0-0.74,0c-0.28,0-0.6,0-0.97,0s-0.78,0-1.25,0c-0.47,0-0.99,0-1.56,0
				c-0.58,0-1.21,0-1.91,0c-0.7,0-1.46,0-2.29,0c0-0.02,0-0.03,0-0.04c0-0.01,0-0.02,0.01-0.03c-0.01,0.01-0.02,0.03-0.02,0.05
				c0,0.02-0.01,0.06-0.02,0.09s-0.02,0.09-0.04,0.15c-0.01,0.06-0.03,0.14-0.05,0.22c-0.02,0.09-0.04,0.19-0.07,0.31
				c-0.03,0.12-0.06,0.25-0.1,0.4s-0.08,0.31-0.12,0.5s-0.09,0.39-0.14,0.62c-0.05,0.23-0.11,0.48-0.17,0.75
				c-0.06,0.27-0.13,0.57-0.21,0.89c-0.08,0.33-0.16,0.68-0.24,1.05c-0.09,0.38-0.18,0.78-0.29,1.21c-0.01,0-0.03,0-0.05,0
				s-0.07,0-0.13,0c-0.06,0-0.15,0-0.25,0c-0.11,0-0.24,0-0.4,0c-0.16,0-0.36,0-0.6,0c-0.24,0-0.52,0-0.84,0s-0.69,0-1.11,0
				s-0.89,0-1.43,0c0-0.01,0-0.03,0.01-0.05c0-0.02,0.01-0.06,0.03-0.11c0.01-0.05,0.03-0.12,0.06-0.21s0.05-0.21,0.09-0.36
				c0.03-0.14,0.07-0.32,0.12-0.53s0.11-0.46,0.18-0.75s0.15-0.62,0.24-0.99c0.09-0.37,0.19-0.79,0.3-1.27s0.24-1,0.38-1.58
				c0.14-0.58,0.3-1.22,0.46-1.93c0.17-0.7,0.35-1.47,0.55-2.31c0.2-0.84,0.42-1.75,0.66-2.74c0.24-0.99,0.49-2.05,0.77-3.19
				C98.04,6.41,99.41,5.35,101.39,5.35z M100.77,13.89h8.07c0.29,0,0.48-0.13,0.57-0.4l0.76-3.06c0.03-0.18-0.01-0.34-0.13-0.47
				c-0.11-0.13-0.26-0.2-0.44-0.2c-0.01,0-0.02,0-0.04,0s-0.05,0-0.11,0c-0.05,0-0.12,0-0.21,0c-0.08,0-0.2,0-0.33,0s-0.31,0-0.51,0
				c-0.21,0-0.44,0-0.71,0s-0.59,0-0.94,0s-0.76,0-1.21,0c-0.45,0-0.96,0-1.51,0s-1.17,0-1.83,0c-0.11,0-0.23,0.04-0.34,0.13
				s-0.19,0.2-0.23,0.34L100.77,13.89z"/>
			<path class="st2" d="M120.4,9.86h4.53l-0.94,4.18h-2.54c-0.29,0-0.56,0.1-0.8,0.31c-0.24,0.21-0.39,0.46-0.47,0.77l-2.33,9.42
				h-4.68l2.6-10.62C116.44,11.55,117.98,10.2,120.4,9.86z"/>
			<path class="st2" d="M127.35,12.76c1.85-1.82,4.09-2.79,6.72-2.9c0.38,0,0.72,0,1.03,0s0.57,0,0.81,0c0.23,0,0.44,0,0.61,0
				s0.32,0,0.44,0s0.22,0,0.29,0c0.08,0,0.13,0,0.18,0s0.07,0,0.09,0c0.02,0,0.03,0,0.04,0c1.23,0,2.21,0.45,2.93,1.35
				c0.73,0.9,0.95,1.92,0.68,3.08c-0.08,0.29-0.14,0.53-0.2,0.74c-0.06,0.21-0.1,0.39-0.14,0.53c-0.04,0.14-0.07,0.26-0.1,0.36
				c-0.03,0.1-0.05,0.17-0.06,0.22c-0.01,0.05-0.02,0.09-0.03,0.11c-0.01,0.02-0.01,0.03-0.01,0.04c-0.23,0.92-0.71,1.65-1.43,2.2
				c-0.73,0.55-1.57,0.82-2.52,0.82c-0.48,0-0.9,0-1.29,0s-0.71,0-1,0s-0.54,0-0.75,0c-0.21,0-0.39,0-0.54,0c-0.14,0-0.26,0-0.36,0
				c-0.1,0-0.17,0-0.22,0c-0.05,0-0.09,0-0.11,0c-0.02,0-0.04,0-0.05,0c-0.62-0.11-1.01-0.44-1.17-1c-0.16-0.56-0.07-1.13,0.28-1.7
				c0.35-0.58,0.99-0.95,1.92-1.12c0.34,0,0.64,0,0.9,0s0.48,0,0.68,0s0.36,0,0.49,0s0.24,0,0.32,0s0.15,0,0.2,0
				c0.05,0,0.08,0,0.1,0c0.02,0,0.03,0,0.04,0c0.06-0.23,0.11-0.43,0.15-0.59s0.08-0.31,0.11-0.42c0.03-0.11,0.06-0.21,0.08-0.29
				c0.02-0.08,0.03-0.14,0.04-0.18c0.01-0.04,0.02-0.07,0.02-0.09c0-0.01,0.01-0.03,0.01-0.04c-0.36,0-0.68,0-0.96,0
				c-0.28,0-0.52,0-0.73,0c-0.2,0-0.38,0-0.52,0s-0.26,0-0.35,0c-0.09,0-0.16,0-0.21,0c-0.05,0-0.09,0-0.11,0c-0.02,0-0.04,0-0.05,0
				c-1.02,0-1.9,0.27-2.64,0.81c-0.74,0.54-1.27,1.41-1.58,2.6c-0.15,0.85-0.02,1.63,0.4,2.35c0.42,0.72,1.24,1.07,2.47,1.07
				c0.66,0,1.26,0,1.81,0c0.55,0,1.04,0,1.49,0s0.84,0,1.19,0s0.66,0,0.93,0s0.5,0,0.7,0c0.2,0,0.36,0,0.5,0s0.25,0,0.34,0
				c0.08,0,0.15,0,0.2,0s0.08,0,0.1,0c0.02,0,0.03,0,0.04,0c0.01,0,0.01,0,0,0c-0.1,0.43-0.2,0.81-0.29,1.15
				c-0.09,0.33-0.17,0.63-0.24,0.88s-0.13,0.47-0.18,0.67c-0.05,0.19-0.09,0.35-0.13,0.48s-0.07,0.23-0.09,0.31
				c-0.02,0.08-0.04,0.15-0.05,0.19c-0.01,0.05-0.02,0.08-0.03,0.1c0,0.02-0.01,0.03-0.01,0.04c-0.76,0-1.45,0-2.08,0
				c-0.62,0-1.19,0-1.69,0c-0.5,0-0.96,0-1.36,0c-0.4,0-0.75,0-1.06,0s-0.57,0-0.8,0s-0.42,0-0.57,0c-0.15,0-0.28,0-0.38,0
				c-0.1,0-0.18,0-0.24,0c-0.06,0-0.1,0-0.12,0c-0.02,0-0.04,0-0.05,0c-1.98,0-3.4-0.47-4.27-1.42s-1.31-2.08-1.33-3.4
				C124.58,16.9,125.51,14.58,127.35,12.76z"/>
			<path class="st2" d="M140.53,24.54l0.81-3.98h7.52c0.8,0.07,1.28-0.18,1.44-0.75c0.02-0.62-0.44-0.9-1.38-0.84h-2.11
				c-1.47-0.03-2.59-0.5-3.36-1.42c-0.78-0.92-1.02-2.18-0.72-3.79c0.85-2.79,2.98-4.08,6.41-3.88h7.91l-0.84,3.82h-7.78
				c-0.59-0.03-0.93,0.19-1.01,0.64c-0.04,0.35,0.09,0.59,0.38,0.7c0.29,0.11,0.69,0.16,1.19,0.13l1.9-0.06
				c1.78,0.06,2.96,0.56,3.53,1.51c0.58,0.95,0.73,2.22,0.46,3.8c-0.59,2.84-2.55,4.21-5.87,4.11H140.53z"/>
			<path class="st2" d="M155.19,24.54l0.81-3.98h7.52c0.8,0.07,1.28-0.18,1.44-0.75c0.02-0.62-0.44-0.9-1.38-0.84h-2.11
				c-1.47-0.03-2.59-0.5-3.36-1.42c-0.78-0.92-1.02-2.18-0.72-3.79c0.85-2.79,2.98-4.08,6.41-3.88h7.91l-0.84,3.82h-7.78
				c-0.59-0.03-0.93,0.19-1.01,0.64c-0.04,0.35,0.09,0.59,0.38,0.7c0.29,0.11,0.69,0.16,1.19,0.13l1.9-0.06
				c1.78,0.06,2.96,0.56,3.53,1.51c0.58,0.95,0.73,2.22,0.46,3.8c-0.59,2.84-2.55,4.21-5.87,4.11H155.19z"/>
		</g>
	</g>
</g>
</svg>
